<?xml version="1.0" encoding="UTF-8" standalone="no"?>
<!-- The icon can be used freely in both personal and commercial projects with no attribution required, but always appreciated. 
You may NOT sub-license, resell, rent, redistribute or otherwise transfer the icon without express written permission from iconmonstr.com -->

<svg
   xmlns:dc="http://purl.org/dc/elements/1.1/"
   xmlns:cc="http://creativecommons.org/ns#"
   xmlns:rdf="http://www.w3.org/1999/02/22-rdf-syntax-ns#"
   xmlns:svg="http://www.w3.org/2000/svg"
   xmlns="http://www.w3.org/2000/svg"
   xmlns:sodipodi="http://sodipodi.sourceforge.net/DTD/sodipodi-0.dtd"
   xmlns:inkscape="http://www.inkscape.org/namespaces/inkscape"
   version="1.1"
   x="0px"
   y="0px"
   width="412"
   height="403.702"
   viewBox="0 0 412 403.702"
   enable-background="new 0 0 512 512"
   xml:space="preserve"
   id="svg3071"
   inkscape:version="0.48.4 r9939"
   sodipodi:docname="cd-icon-event.svg"><metadata
     id="metadata3078"><rdf:RDF><cc:Work
         rdf:about=""><dc:format>image/svg+xml</dc:format><dc:type
           rdf:resource="http://purl.org/dc/dcmitype/StillImage" /></cc:Work></rdf:RDF></metadata><defs
     id="defs3076" /><sodipodi:namedview
     pagecolor="#ffffff"
     bordercolor="#666666"
     borderopacity="1"
     objecttolerance="10"
     gridtolerance="10"
     guidetolerance="10"
     inkscape:pageopacity="0"
     inkscape:pageshadow="2"
     inkscape:window-width="640"
     inkscape:window-height="480"
     id="namedview3074"
     showgrid="false"
     fit-margin-top="0"
     fit-margin-left="0"
     fit-margin-right="0"
     fit-margin-bottom="0"
     inkscape:zoom="0.4609375"
     inkscape:cx="206"
     inkscape:cy="201.851"
     inkscape:window-x="0"
     inkscape:window-y="27"
     inkscape:window-maximized="0"
     inkscape:current-layer="svg3071" /><style
     type="text/css">
  #calendar {fill:#FFFFFF;}
</style><path
     id="calendar"
     d="M 147.453,241.802 H 88.548 v -58.904 h 58.905 v 58.904 z m 88.999,-58.904 h -58.904 v 58.904 h 58.904 v -58.904 z m 89,0 h -58.905 v 58.904 h 58.905 v -58.904 z m -177.999,86 H 88.548 v 58.906 h 58.905 v -58.906 z m 88.999,0 h -58.904 v 58.906 h 58.904 v -58.906 z m 88.999,0 h -58.904 v 58.906 h 58.904 V 268.898 z M 347.389,63.982 c 0,10.035 -8.135,18.171 -18.17,18.171 -10.035,0 -18.171,-8.136 -18.171,-18.171 V 18.253 c 0,-10.034 8.136,-18.17 18.171,-18.17 10.035,0 18.17,8.136 18.17,18.17 V 63.982 z M 101.889,18.171 C 101.889,8.136 93.753,0 83.719,0 73.683,0 65.548,8.136 65.548,18.171 v 45.728 c 0,10.035 8.135,18.171 18.171,18.171 10.034,0 18.17,-8.136 18.17,-18.171 V 18.171 z m 267.463,26.531 v 18.616 c 0,22.13 -18.004,40.134 -40.133,40.134 -22.13,0 -40.134,-18.004 -40.134,-40.134 V 44.702 H 123.852 v 18.533 c 0,22.13 -18.004,40.134 -40.133,40.134 -22.13,0 -40.134,-18.004 -40.134,-40.134 V 44.702 H 0 v 359 h 412 v -359 h -42.648 z m 2.648,319 H 40 V 141.231 h 332 v 222.471 z"
     inkscape:connector-curvature="0" /></svg>